<?xml version="1.0" encoding="UTF-8"?><svg id="_Слой_1" xmlns="http://www.w3.org/2000/svg" viewBox="0 0 232.95 205.6"><defs><style>.cls-1{fill:none;}.cls-1,.cls-2{stroke:#080808;stroke-miterlimit:10;stroke-width:.5px;}.cls-2{fill:#a166ff;}</style></defs><path class="cls-2" d="m36.5,150.87h0c1.05.01,2.02.01,2.95,0h-2.95Zm-16.92.98c-.97-.04-2.08.15-3.15.27,1.28.27,2.95-.13,4.45-.24-.42,0-.86-.01-1.3-.03Z"/><path class="cls-2" d="m204.43,111.66c-12.64-20.56-25.25-41.14-37.8-61.76-3.03-4.98-2.97-5.07-7.2-.76-1.26,1.27-2.83,2.24-4.09,3.41-2.34,2.19-3.04,1.03-4.15-1-3.93-7.2-7.99-14.33-11.98-21.49-5.39-9.69-10.77-19.38-16.07-28.93-2.07.6-2.22,2.33-2.83,3.52-10.43,20.36-20.79,40.75-31.04,61.2-1.35,2.69-1.93,4.04-4.77,1.1-3.49-3.62-7.67-6.59-11.59-9.79-7.55-6.16-7.4-6.05-12.7,2.51-16.38,26.41-32.99,52.68-49.27,79.15-3.48,5.65-7.6,11.02-10.24,17.6h230.15c.27-.27.54-.54.8-.81-9.07-14.65-18.19-29.27-27.22-43.95Zm-158.32,36.98c.21,1.5-1.02,2.1-2.43,2.23h-.01c-.24.02-.49.03-.74.02-.69-.01-1.39-.02-2.1-.02h-1.38c-.93.01-1.9.01-2.95.01h-2.29c4.07-5.36,7.84-10.34,12.38-16.33.22.86.35,1.68.42,2.47.38,4.53-1.39,7.99-.9,11.62Zm14.03-74.47c-1.19,3.12-2.78,5.8-3.99,8.62-9.28,21.66-18.82,43.2-28.2,64.81-1.33,3.07-3.62,4.06-6.26,4.24-.26.02-.53.03-.81.04-1.5.11-3.17.51-4.45.24-1.57.18-3.06.2-3.85-.99-1.51-2.27,1.51-4.31,2.7-6.3,14.8-24.7,29.7-49.35,44.59-74,.15-.25.53-.38,1.54-1.07-.3,1.58-.74,3.04-1.27,4.41Zm67.9,36.64c-2.39-1.02-4.9-.8-7.58-1.04-.75-.06-1.51-.17-2.29-.34,0,8.08.06,16.27-.05,24.46-.02.99.62,2.42.03,3.26-.41-.58-.67-1.45-1.05-2.05-6.16-9.64-12.54-19.14-18.53-28.88-1.4-2.29-2.77-2.86-4.27-2.13-1.2-.66-2.43-.2-3.8,1.11-1.31,1.25-2.74,2.27-4.63,3.51,3.89-18.29-7.22-31.31-14.27-45.61,3.16,2.73,6.31,5.46,9.47,8.2,4.95,4.28,9.87,8.59,14.86,12.84.63.53,1.08,2.1,2.2,1.24.24-.18.48-.35.7-.49,1.49-.93,2.68-1.04,3.71-.68,1.9.65,3.22,2.89,4.74,4.37,6.21,6.03,12.31,12.16,18.38,18.32.87.88,2.31,1.48,2.4,3.27.01.2.01.41-.02.64Zm17.08-36.67c-.07.15-.18.29-.33.43-1.29,1.16-1.88-.67-2.74-1.21-6.15-3.86-12.49-7.46-18.31-11.76-.53-.4-1.01-.68-1.43-.87-1.76-.76-2.76.1-4.09,1.64-1.08,1.25-2.36,2.34-3.51,3.54-.18.19-.37.39-.56.55-.45.39-.94.63-1.55.35-.64-.3-1.15-.54-1.58-.72-1.75-.71-2.14-.33-4.2,1.73-2.83,2.82-5.67,5.63-8.47,8.48-.5.51-1.02,1.02-1.55,1.36-.22-.17-.45-.38-.68-.66-1.48-1.76-4.6-2.64-2.68-6.23,8.26-15.48,16.32-31.05,24.44-46.61,1.46-2.8,2.86-5.64,4.41-8.75.78,1.55.93,2.98.91,4.53-.09,7.16.05,14.32-.07,21.48-.05,3.6,1.08,5.89,5.06,5.51.19-.02.38-.03.56-.03t.02,0c.29,0,.57.02.84.07,1.58.25,2.72,1.23,3.46,2.65,3.82,7.25,7.44,14.6,11.26,21.85.48.92,1.15,1.88.79,2.67Zm33.09,8.38c-4.25-4.7-8.4-9.29-12.56-13.89-.27.16-.55.32-.82.48.12.45.14.94.25,1.43-.55-.62-1.1-1.23-1.66-1.85-.32.15-.65.31-.87.42-.05.03-.11.06-.16.09,3.38,11.31,6.77,22.62,10.15,33.94-5.02-11.97-10.06-23.95-15.09-35.92-.98-2.33,2.8-9,5.68-10.74.23.17.43.38.56.59,6.35,10.09,12.65,20.2,18.94,30.35-1.49-1.65-2.96-3.28-4.42-4.9Z"/><path class="cls-2" d="m192.53,196.27c-.08.64-.43,1.02-.97,1.24-1.78.15-4.47.04-5.79.04h-.08c-23.16.09-46.31.06-69.49.06H48.67c-1.63,0-3.25.06-4.84-.04-1.39-.09-2.58-.45-3.19-.97,3.35-1.51,4.39-1.86,6.08-1.87,14.17-.04,26.12-.19,40.27-.19,32.84,0,65.65-.03,98.49.06h.02c2.48,0,3.93.03,7.03,1.67Z"/><path class="cls-2" d="m20.88,151.88c-1.5.11-3.17.51-4.45.24,1.07-.12,2.18-.31,3.15-.27.44.02.88.03,1.3.03Z"/><path class="cls-1" d="m164.83,69.11s-.1.06-.15.09c.13.45.27.89.4,1.34-.55-.62-1.1-1.23-1.66-1.85-.02-.02-.04-.04-.06-.06-.27.16-.54.32-.81.48-.05.03-.11.06-.16.09,3.38,11.31,6.77,22.62,10.15,33.94-5.02-11.97-10.06-23.95-15.09-35.92-.98-2.33,2.8-9,5.68-10.74.23.17.43.38.56.59,6.35,10.09,12.65,20.2,18.94,30.35-1.49-1.65-2.96-3.28-4.42-4.9-4.25-4.7-8.4-9.29-12.56-13.89-.27.16-.55.32-.82.48Z"/><path class="cls-2" d="m39.45,150.87c-.93.01-1.9.01-2.95.01h0s2.95-.01,2.95-.01Z"/><g><path class="cls-2" d="m38.27,180.43v1.54c0,3.59-.66,8.18-7.19,8.18-4.82,0-6.92-2.57-6.92-7.81v-13.97c0-4.95,2.47-7.56,7.03-7.56,6.02,0,6.99,3.96,6.99,7.69v1.79h-5.52v-2.43c0-1.57-.33-2.36-1.48-2.36s-1.49.75-1.49,2.36v15.06c0,1.52.25,2.56,1.49,2.56s1.54-.87,1.54-2.68v-2.37h5.54Z"/><path class="cls-2" d="m51.98,177.15h-5.87v7.76h6.88l-.66,4.82h-11.71v-28.48h11.67v4.84h-6.18v6.24h5.87v4.82Z"/><path class="cls-2" d="m60.42,177.35v12.38h-5.47v-28.48h7.11c4.77,0,7.13,2.1,7.13,7.08v1.02c0,4.06-1.62,5.27-2.84,5.84,1.77.86,2.6,2.16,2.6,6.13,0,2.75-.04,6.91.2,8.4h-5.3c-.35-1.29-.33-5-.33-8.63,0-3.2-.37-3.75-2.45-3.75h-.65Zm.01-4.32h.68c1.83,0,2.58-.58,2.58-3.23v-1.38c0-1.91-.38-2.86-2.4-2.86h-.86v7.47Z"/><path class="cls-2" d="m77.16,182.95l-.7,6.78h-5.59l4.03-28.48h8.17l4.12,28.48h-5.7l-.79-6.78h-3.55Zm3.08-4.83c-.41-3.65-.97-9.19-1.24-11.92h-.22c-.1,1.99-.77,8.39-1.15,11.92h2.61Z"/><path class="cls-2" d="m103.88,180.66c0-4.41.04-10.66.11-14.15h-.15c-.6,5.7-1.85,17.24-2.63,23.23h-4.65c-.63-6.23-1.86-17.98-2.45-23.3h-.18c.07,3.35.21,9.52.21,14.43v8.87h-4.97v-28.48h7.86c.74,5.42,1.58,12.53,1.9,16.38h.12c.44-4.12,1.38-10.11,2.26-16.38h7.83v28.48h-5.27v-9.07Z"/><path class="cls-2" d="m118.02,161.25v28.48h-5.47v-28.48h5.47Z"/><path class="cls-2" d="m135.11,180.43v1.54c0,3.59-.66,8.18-7.19,8.18-4.82,0-6.92-2.57-6.92-7.81v-13.97c0-4.95,2.47-7.56,7.03-7.56,6.02,0,6.99,3.96,6.99,7.69v1.79h-5.52v-2.43c0-1.57-.33-2.36-1.48-2.36s-1.49.75-1.49,2.36v15.06c0,1.52.26,2.56,1.49,2.56s1.54-.87,1.54-2.68v-2.37h5.54Z"/><path class="cls-2" d="m145.59,166.09h-4.15v-4.84h13.79v4.84h-4.18v23.64h-5.47v-23.64Z"/><path class="cls-2" d="m162.66,161.25v28.48h-5.47v-28.48h5.47Z"/><path class="cls-2" d="m166.1,161.25h5.49v23.69h6.89l-.49,4.79h-11.88v-28.48Z"/><path class="cls-2" d="m191.51,177.15h-5.87v7.76h6.88l-.66,4.82h-11.71v-28.48h11.67v4.84h-6.18v6.24h5.87v4.82Z"/><path class="cls-2" d="m199.4,180.95v1.97c0,1.87.46,2.74,1.71,2.74s1.56-1.29,1.56-2.63c0-2.69-.51-3.47-3.41-5.9-3.21-2.72-4.86-4.33-4.86-8.52s1.35-7.82,6.74-7.82c5.73,0,6.57,3.91,6.57,7.17v1.64h-5.17v-1.71c0-1.73-.28-2.58-1.37-2.58-1.01,0-1.34.87-1.34,2.48,0,1.71.31,2.56,2.67,4.4,4.19,3.29,5.69,5.14,5.69,9.83s-1.52,8.13-7.18,8.13-6.98-3.28-6.98-7.5v-1.71h5.36Z"/></g></svg>